<svg width="596" height="607" viewBox="0 0 596 607" fill="none" xmlns="http://www.w3.org/2000/svg">
<g clip-path="url(#clip0_115_211)">
<path d="M132.5 0C167.641 2.6631e-06 201.343 14.0127 226.191 38.9551C251.04 63.8974 265 97.7262 265 133V306C265 306.332 264.995 306.662 264.988 306.992C265.239 315.292 268.633 323.198 274.5 329.087C280.6 335.21 288.873 338.65 297.5 338.65C306.127 338.65 314.4 335.21 320.5 329.087C326.299 323.266 329.68 315.474 330 307.279V238C330 233.435 330.612 229.012 331.758 224.811C334.97 194.754 348.315 166.53 369.809 144.955C394.657 120.013 428.359 106 463.5 106C498.641 106 532.343 120.013 557.191 144.955C582.04 169.897 596 203.726 596 239H595V314C595 341.614 572.614 364 545 364C517.386 364 495 341.614 495 314V311.314C509.344 299.086 518.047 278.742 518.047 257.5C518.047 223.61 495.896 192 464.023 192C432.151 192 410 223.61 410 257.5C410 277.193 417.48 296.114 430 308.513V313H429.814C428.097 345.724 414.391 376.758 391.191 400.045C366.343 424.987 332.641 439 297.5 439C262.359 439 228.657 424.987 203.809 400.045C178.96 375.103 165 341.274 165 306V281.278C182.312 273.461 194.385 256.072 194.446 235.838L194.56 198.062C194.699 197.016 194.773 195.95 194.776 194.867L195.036 107.246C195.076 93.6894 184.119 82.6664 170.562 82.626C163.009 82.6036 156.243 85.9963 151.725 91.3496C151.179 90.7409 150.603 90.16 150 89.6084V89H149.308C145.047 85.3857 139.537 83.1976 133.513 83.1797C127.435 83.1617 121.867 85.3539 117.569 89H116V90.4551C115.392 91.0692 114.815 91.7143 114.273 92.3896C109.817 87.69 103.52 84.7514 96.5322 84.7305C82.9755 84.6902 71.9525 95.6474 71.9121 109.204L71.7373 168.469H71.5762L71.374 235.468C71.3139 255.487 83.0301 272.791 100 280.828V382C100 409.614 77.6142 432 50 432C22.3858 432 0 409.614 0 382V129H0.0625C1.07535 95.1773 14.9009 62.953 38.8086 38.9551C63.6572 14.0127 97.3588 1.3932e-06 132.5 0ZM165 269.75C165.082 269.786 165.164 269.822 165.247 269.856C165.165 269.907 165.083 269.957 165 270.007V269.75ZM156.426 103.44C156.148 104.582 156 105.773 156 107V110.427C155.978 110.403 155.955 110.381 155.933 110.357L155.942 107.129C155.946 105.854 156.114 104.618 156.426 103.44ZM108.876 101.696C110.103 103.702 110.856 106.027 110.984 108.517C110.651 108.812 110.322 109.113 110 109.423V107.5C110 105.448 109.6 103.489 108.876 101.696Z" fill="#FCCD2A"/>
<path d="M510.494 414.232C536.008 424.731 548.916 454.395 534.089 477.662C516.903 504.631 495.163 528.556 469.724 548.308C431.088 578.308 385.274 597.631 336.854 604.351C288.434 611.071 239.101 604.952 193.779 586.604C163.939 574.524 136.524 557.42 112.667 536.147C92.0817 517.791 96.4546 485.734 118.142 468.696V468.696C139.883 451.615 171.418 455.915 193.814 472.128C205.451 480.552 218.108 487.577 231.533 493.012C260.515 504.745 292.063 508.658 323.027 504.361C353.99 500.064 383.288 487.706 407.995 468.522C419.452 459.626 429.736 449.407 438.656 438.115C455.788 416.427 484.935 403.715 510.494 414.232V414.232Z" fill="#FCCD2A"/>
<rect x="110" y="83" width="8" height="109" rx="4" fill="#FCCD2A"/>
<rect x="148" y="83" width="8" height="109" rx="4" fill="#FCCD2A"/>
</g>
<defs>
<clipPath id="clip0_115_211">
<rect width="596" height="607" fill="white"/>
</clipPath>
</defs>
</svg>
